<svg width="15" height="15" viewBox="0 0 15 15" fill="none" xmlns="http://www.w3.org/2000/svg">
<path d="M14.5864 12.5876L11.1292 9.13037C10.6136 9.93265 9.93265 10.6136 9.13037 11.1292L12.5876 14.5864C13.139 15.1378 14.035 15.1378 14.5864 14.5864C15.1378 14.035 15.1378 13.1417 14.5864 12.5876Z" fill="#545454"/>
<path d="M11.087 5.54348C11.087 2.4824 8.60516 0 5.54213 0C2.47909 0 0 2.4824 0 5.54348C0 8.60456 2.48179 11.087 5.54213 11.087C8.60246 11.087 11.0843 8.60456 11.0843 5.54348H11.087ZM5.54483 9.70244C3.25228 9.70244 1.38688 7.83658 1.38688 5.54348C1.38688 3.25037 3.24958 1.38452 5.54213 1.38452C7.83467 1.38452 9.70007 3.25037 9.70007 5.54348C9.70007 7.83658 7.83467 9.70244 5.54213 9.70244H5.54483Z" fill="#545454"/>
</svg>
